<?xml version="1.0" encoding="utf-8"?>
<!-- Generator: Adobe Illustrator 16.0.0, SVG Export Plug-In . SVG Version: 6.00 Build 0)  -->
<!DOCTYPE svg PUBLIC "-//W3C//DTD SVG 1.0//EN" "http://www.w3.org/TR/2001/REC-SVG-20010904/DTD/svg10.dtd">
<svg version="1.0" id="Layer_1" xmlns="http://www.w3.org/2000/svg" xmlns:xlink="http://www.w3.org/1999/xlink" x="0px" y="0px"
	 width="543.755px" height="76.633px" viewBox="0 0 543.755 76.633" enable-background="new 0 0 543.755 76.633"
	 xml:space="preserve">
<g>
	<path d="M29.849,76.42C17.994,76.42,8.891,72.504,0,64.566l3.599-4.128c8.15,7.515,15.665,11.008,26.567,11.008
		c11.114,0,18.734-6.245,18.734-14.712v-0.213c0-7.832-4.128-12.384-20.958-15.771C10.162,37.152,2.964,31.119,2.964,19.898v-0.211
		c0-11.008,10.055-19.476,23.815-19.476c10.796,0,17.888,2.964,25.403,8.997l-3.493,4.339c-6.985-6.032-13.971-8.362-22.122-8.362
		c-10.902,0-18.099,6.246-18.099,13.973v0.211c0,7.834,4.021,12.597,21.592,16.195c17.147,3.492,24.345,9.632,24.345,20.428v0.212
		C54.405,68.165,44.138,76.42,29.849,76.42z"/>
	<path d="M200.57,75.363L148.388,9.525v65.838h-5.292V1.27h5.186l51.124,64.461V1.27h5.292v74.094H200.57z"/>
	<path d="M260.901,76.633c-23.392,0-37.258-17.254-37.258-38.105v-0.211C223.643,18.311,238.144,0,260.266,0
		c12.066,0,19.688,3.599,27.097,9.738l-3.6,4.127c-5.821-5.08-12.595-8.891-23.815-8.891c-17.994,0-30.589,15.242-30.589,33.129
		v0.213c0,19.158,11.961,33.447,31.754,33.447c9.42,0,18.205-3.916,23.603-8.469V40.539h-9.803v-5.08h15.096v30.059
		C283.34,71.446,272.966,76.633,260.901,76.633z"/>
	<path d="M308.952,75.363V1.27h52.712v5.08h-47.207v29.108h47.254v5.081h-47.254v29.742h47.254v5.082H308.952z"/>
	<path d="M71.183,75.363V1.27h52.711v5.08H76.687v29.108h47.254v5.081H76.687v29.742h47.254v5.082H71.183z"/>
	<path d="M410.497,6.35v69.014h-5.504V6.35h-24.227V1.27h55.558v5.08H410.497z"/>
	<path d="M455.269,75.363V1.27h5.504v74.094H455.269z"/>
	<path d="M504.38,75.363h-24.662V1.27h24.662c23.287,0,39.375,15.984,39.375,36.834v0.213
		C543.755,59.168,527.667,75.363,504.38,75.363z M538.039,38.316c0-17.57-13.019-31.967-33.659-31.967h-19.158v63.932h19.158
		c20.641,0,33.659-14.077,33.659-31.754V38.316z"/>
</g>
</svg>
